<svg width="209" height="92" viewBox="0 0 209 92" fill="none" xmlns="http://www.w3.org/2000/svg">
<path d="M0 22.4809L38.938 44.9618L12.9794 0L0 22.4809Z" transform="translate(0.519165 46.7255)" fill="url(#paint0_linear)"/>
<path d="M12.9794 22.4809L51.9174 7.92197e-06L0 0L12.9794 22.4809Z" transform="translate(27.5162 69.2066)" fill="url(#paint1_linear)"/>
<path d="M0 0V44.9618L25.9587 0H0Z" transform="translate(0 23.3719)" fill="url(#paint2_linear)"/>
<path d="M38.938 22.4809L0 0L25.9587 44.9618L38.938 22.4809Z" transform="translate(40.4955)" fill="url(#paint3_linear)"/>
<path d="M38.938 0L0 22.4809L51.9174 22.4809L38.938 0Z" transform="translate(0.519165)" fill="url(#paint4_linear)"/>
<path d="M25.9587 44.9618V0L0 44.9618H25.9587Z" transform="translate(54.0414 23.3719)" fill="url(#paint5_linear)"/>
<path d="M14.544 8.008V12.232H10.032V25H4.704V12.232H0.24V8.008H14.544ZM30.3171 11.464V25H24.9891V22.936C24.5731 23.576 24.0131 24.096 23.3091 24.496C22.6211 24.896 21.7971 25.096 20.8371 25.096C19.2851 25.096 18.0691 24.576 17.1891 23.536C16.3251 22.496 15.8931 21.088 15.8931 19.312V11.464H21.1971V18.64C21.1971 19.28 21.3651 19.792 21.7011 20.176C22.0531 20.544 22.5171 20.728 23.0931 20.728C23.6851 20.728 24.1491 20.544 24.4851 20.176C24.8211 19.792 24.9891 19.28 24.9891 18.64V11.464H30.3171ZM39.8034 8.008C41.5794 8.008 43.1314 8.368 44.4594 9.088C45.8034 9.808 46.8354 10.808 47.5554 12.088C48.2754 13.368 48.6354 14.824 48.6354 16.456C48.6354 18.072 48.2754 19.528 47.5554 20.824C46.8354 22.12 45.8034 23.144 44.4594 23.896C43.1314 24.632 41.5794 25 39.8034 25H32.7234V8.008H39.8034ZM39.3234 20.248C40.5234 20.248 41.4754 19.92 42.1794 19.264C42.8834 18.608 43.2354 17.672 43.2354 16.456C43.2354 15.24 42.8834 14.304 42.1794 13.648C41.4754 12.992 40.5234 12.664 39.3234 12.664H38.0514V20.248H39.3234ZM56.9914 25.168C55.6314 25.168 54.4074 24.888 53.3194 24.328C52.2314 23.768 51.3754 22.968 50.7514 21.928C50.1434 20.872 49.8394 19.64 49.8394 18.232C49.8394 16.824 50.1434 15.6 50.7514 14.56C51.3754 13.504 52.2314 12.696 53.3194 12.136C54.4074 11.576 55.6314 11.296 56.9914 11.296C58.3514 11.296 59.5754 11.576 60.6634 12.136C61.7514 12.696 62.5994 13.504 63.2074 14.56C63.8314 15.6 64.1434 16.824 64.1434 18.232C64.1434 19.64 63.8314 20.872 63.2074 21.928C62.5994 22.968 61.7514 23.768 60.6634 24.328C59.5754 24.888 58.3514 25.168 56.9914 25.168ZM56.9914 20.56C57.4874 20.56 57.9034 20.368 58.2394 19.984C58.5754 19.584 58.7434 19 58.7434 18.232C58.7434 17.464 58.5754 16.888 58.2394 16.504C57.9034 16.104 57.4874 15.904 56.9914 15.904C56.4954 15.904 56.0794 16.104 55.7434 16.504C55.4074 16.888 55.2394 17.464 55.2394 18.232C55.2394 19 55.3994 19.584 55.7194 19.984C56.0554 20.368 56.4794 20.56 56.9914 20.56ZM71.1452 20.968H76.2812V25H65.8172V8.008H71.1452V20.968ZM80.6458 10.384C79.7178 10.384 78.9738 10.136 78.4138 9.64C77.8538 9.144 77.5738 8.52 77.5738 7.768C77.5738 7 77.8538 6.368 78.4138 5.872C78.9738 5.36 79.7178 5.104 80.6458 5.104C81.5578 5.104 82.2938 5.36 82.8538 5.872C83.4138 6.368 83.6938 7 83.6938 7.768C83.6938 8.52 83.4138 9.144 82.8538 9.64C82.2938 10.136 81.5578 10.384 80.6458 10.384ZM83.2858 11.464V25H77.9578V11.464H83.2858ZM95.1722 11.368C96.7242 11.368 97.9322 11.888 98.7962 12.928C99.6762 13.968 100.116 15.376 100.116 17.152V25H94.8122V17.824C94.8122 17.184 94.6362 16.68 94.2842 16.312C93.9482 15.928 93.4922 15.736 92.9162 15.736C92.3242 15.736 91.8602 15.928 91.5242 16.312C91.1882 16.68 91.0202 17.184 91.0202 17.824V25H85.6922V11.464H91.0202V13.528C91.4362 12.888 91.9882 12.368 92.6762 11.968C93.3802 11.568 94.2122 11.368 95.1722 11.368ZM111.091 25L107.755 19.6V25H102.427V7.24H107.755V16.528L111.139 11.464H117.331L112.267 18.28L117.451 25H111.091Z" transform="translate(91 28)" fill="white"/>
<defs>
<linearGradient id="paint0_linear" x2="1" gradientUnits="userSpaceOnUse" gradientTransform="translate(24.1992 6.50475) scale(25.9357) rotate(119.997)">
<stop stop-color="#00FF00"/>
<stop offset="1" stop-color="#00FF00" stop-opacity="0"/>
</linearGradient>
<linearGradient id="paint1_linear" x2="1" gradientUnits="userSpaceOnUse" gradientTransform="translate(11.1947 -6.47637) scale(25.8795) rotate(59.8987)">
<stop stop-color="#00FF00"/>
<stop offset="1" stop-color="#00FF00" stop-opacity="0"/>
</linearGradient>
<linearGradient id="paint2_linear" x2="1" gradientUnits="userSpaceOnUse" gradientTransform="translate(25.9491 12.9602) scale(25.9518) rotate(-180)">
<stop stop-color="#00FF00"/>
<stop offset="1" stop-color="#00FF00" stop-opacity="0"/>
</linearGradient>
<linearGradient id="paint3_linear" x2="1" gradientUnits="userSpaceOnUse" gradientTransform="translate(14.805 38.3269) scale(25.8224) rotate(-59.8544)">
<stop stop-color="#00FF00"/>
<stop offset="1" stop-color="#00FF00" stop-opacity="0"/>
</linearGradient>
<linearGradient id="paint4_linear" x2="1" gradientUnits="userSpaceOnUse" gradientTransform="translate(40.7133 28.9842) scale(25.939) rotate(-120.155)">
<stop stop-color="#00FF00"/>
<stop offset="1" stop-color="#00FF00" stop-opacity="0"/>
</linearGradient>
<linearGradient id="paint5_linear" x2="1" gradientUnits="userSpaceOnUse" gradientTransform="translate(0.170152 31.9366) scale(25.843) rotate(0.223361)">
<stop stop-color="#00FF00"/>
<stop offset="1" stop-color="#00FF00" stop-opacity="0"/>
</linearGradient>
</defs>
</svg>
